# xmcd
#
# Track frame offsets: 
#        150
#        17512
#        34352
#        52955
#        71030
#        85680
#        111242
#        127415
#        145215
#        177447
#        195197
#        211462
#        233112
#        247925
#        285650
#
# Disc length: 4080 seconds
#
# Revision: 0
# Processed by: cddbd v1.5.2PL0 Copyright (c) Steve Scherf et al.
# Submitted via: ExactAudioCopy v0.99pb4
#
DISCID=d70fee0f
DTITLE=Various Artist - Good Whiskey Blues
DYEAR=1992
DGENRE=Blues
TTITLE0=Doug Davis Band - Down don't bother me
TTITLE1=Michael Henderson - Ramblin' on my mind
TTITLE2=Tombstone Bullets and Jimmy Hall - Murdered by love
TTITLE3=Beat Daddys - Livin' this love
TTITLE4=Billy C. Farlow - A little meat on the side
TTITLE5=Freddie and the Screamers - Full moon on Mian Street
TTITLE6=Hypnotics - Womanizer
TTITLE7=Zip Gibson - Smoking Hookah Blues
TTITLE8=Toler Brothers - Goin' down slow
TTITLE9=Bleu Jackson - Lightning
TTITLE10=Bleu Jackson - You left your mark on me
TTITLE11=Jim Liban - Skin hunger
TTITLE12=Mojo Men - Midnight drag
TTITLE13=Homesick James - 12 year old boy
TTITLE14=Steddy Eddy - Blue Train
EXTD=
EXTT0=
EXTT1=
EXTT2=
EXTT3=
EXTT4=
EXTT5=
EXTT6=
EXTT7=
EXTT8=
EXTT9=
EXTT10=
EXTT11=
EXTT12=
EXTT13=
EXTT14=
PLAYORDER=
